<?xml version="1.0" standalone="no"?>
<!DOCTYPE svg PUBLIC "-//W3C//DTD SVG 20010904//EN"
 "http://www.w3.org/TR/2001/REC-SVG-20010904/DTD/svg10.dtd">
<svg version="1.0" id = "ryan" xmlns="http://www.w3.org/2000/svg"
 width="300.000000pt" height="216.000000pt" viewBox="0 0 300.000000 216.000000"
 preserveAspectRatio="xMidYMid meet">
<metadata>
Created by potrace 1.10, written by Peter Selinger 2001-2011
</metadata>
<g id = "design-freepik" transform="translate(0.000000,216.000000) scale(0.100000,-0.100000)"
fill="#000000" stroke="none">
<path d="M1060 2044 c-59 -26 -96 -71 -109 -137 -5 -24 -17 -33 -78 -57 -93
-36 -150 -69 -249 -146 -66 -51 -83 -60 -99 -52 -10 6 -42 11 -72 11 -42 0
-61 -6 -94 -28 -52 -36 -89 -100 -89 -151 0 -50 30 -114 64 -141 25 -20 26
-24 16 -65 -14 -63 -12 -195 5 -284 16 -86 54 -174 112 -261 l38 -58 0 -120
c0 -142 16 -201 74 -267 81 -91 197 -130 391 -131 98 -1 145 4 215 22 83 21
104 22 253 15 159 -6 164 -7 174 -30 13 -28 82 -64 125 -64 43 0 113 27 143
54 23 22 36 24 175 30 180 7 244 18 350 59 62 24 97 31 152 31 84 1 114 18
153 87 65 116 9 243 -161 369 -125 93 -407 228 -593 285 -81 25 -86 28 -79 48
13 35 7 93 -20 219 -61 281 -218 473 -468 575 -64 26 -68 30 -78 70 -28 107
-145 163 -251 117z m170 -59 c27 -26 57 -81 49 -89 -2 -2 -30 0 -63 4 -32 5
-97 5 -144 0 -47 -5 -87 -8 -88 -7 -2 1 5 21 15 43 38 83 167 111 231 49z m84
-145 c225 -57 390 -218 481 -467 13 -37 22 -69 20 -71 -2 -2 -13 6 -24 17 -47
47 -176 18 -239 -54 -32 -36 -48 -89 -39 -127 5 -20 0 -26 -37 -41 l-43 -18
-31 29 c-17 16 -45 32 -61 35 -35 7 -87 -6 -112 -29 -10 -9 -22 -13 -28 -10
-16 10 -81 -21 -89 -43 -4 -11 -23 -30 -42 -43 -70 -47 -86 -124 -39 -189 l21
-31 -36 -37 c-37 -38 -47 -71 -22 -71 8 0 35 21 58 46 37 39 50 47 85 48 48 3
110 44 119 81 5 20 10 23 34 18 49 -9 119 32 141 83 11 23 17 49 14 57 -4 10
8 19 40 32 l47 17 26 -30 c55 -64 139 -92 197 -68 45 19 45 18 -16 -85 -74
-127 -218 -258 -364 -332 -125 -63 -341 -103 -446 -83 l-34 6 -2 90 c-3 107
-15 161 -49 213 -28 42 -90 76 -139 77 -81 0 -159 -50 -171 -109 -4 -17 -10
-31 -14 -31 -14 0 -118 222 -131 280 -15 68 -15 218 0 285 18 74 83 202 138
270 192 236 517 354 787 285z m-818 -216 c21 -5 19 -10 -30 -78 -46 -64 -72
-114 -90 -170 -6 -17 -9 -15 -31 14 -44 60 -44 116 0 176 38 50 97 73 151 58z
m1188 -330 c9 -23 2 -28 -13 -10 -7 8 -20 12 -29 9 -15 -4 -15 -3 -2 6 21 15
37 13 44 -5z m79 -3 c20 -10 37 -14 37 -9 0 5 5 8 12 6 13 -5 41 -116 41 -166
1 -92 -166 -153 -218 -80 -24 35 -20 53 7 34 55 -39 198 7 198 62 0 14 -3 13
-18 -5 l-17 -23 1 28 c0 16 4 34 8 41 5 7 -3 29 -19 52 -21 29 -35 39 -54 39
-26 0 -51 16 -51 32 0 14 34 9 73 -11z m-89 -30 c3 -5 -13 -28 -35 -52 -47
-51 -63 -84 -50 -106 6 -12 10 -10 15 12 7 26 8 26 21 9 11 -16 11 -20 -1 -27
-16 -9 -16 -67 0 -67 5 0 6 -3 3 -7 -9 -8 -58 37 -52 48 3 4 1 10 -5 14 -5 3
-10 33 -10 65 0 48 4 64 26 89 25 31 75 43 88 22z m36 -12 c0 -5 -4 -9 -10 -9
-5 0 -10 7 -10 16 0 8 5 12 10 9 6 -3 10 -10 10 -16z m81 -40 c26 -26 20 -33
-15 -20 -14 6 -39 8 -56 5 -33 -7 -41 9 -12 25 28 17 60 13 83 -10z m-48 -48
c54 -13 68 -23 49 -35 -15 -9 -83 14 -76 26 4 7 2 8 -5 4 -7 -5 -8 -13 -4 -20
4 -6 -4 1 -18 18 -19 21 -31 27 -45 22 -15 -6 -14 -2 6 19 l25 27 5 -24 c5
-18 17 -26 63 -37z m-60 -34 c1 -5 20 -11 41 -12 61 -5 64 -20 6 -31 -24 -5
-31 -4 -26 4 4 8 0 12 -11 12 -10 0 -29 7 -41 16 -19 13 -20 19 -11 36 11 21
12 21 25 3 7 -10 15 -22 17 -28z m-308 -52 c37 -36 34 -86 -6 -119 -32 -28
-86 -35 -106 -15 -20 20 -43 2 -43 -31 0 -69 -101 -109 -150 -60 -37 37 -20
113 31 141 14 7 30 7 56 -2 33 -11 38 -10 55 11 10 12 18 30 18 40 0 27 48 60
87 60 23 0 42 -8 58 -25z m-165 1 c0 -22 -23 -56 -37 -56 -28 0 -44 15 -37 33
3 9 10 14 15 11 5 -3 9 0 9 5 0 6 11 11 25 11 14 0 25 -2 25 -4z m608 -65 c-6
-10 -18 -17 -25 -14 -10 4 -8 9 9 18 13 7 24 13 26 14 1 1 -3 -8 -10 -18z
m202 -58 c249 -90 481 -216 579 -314 110 -111 128 -226 46 -298 -29 -26 -44
-31 -84 -31 -43 0 -61 8 -171 80 -124 80 -160 98 -179 85 -20 -12 -11 -24 32
-46 23 -12 80 -46 125 -77 l84 -56 -45 -17 c-66 -26 -180 -47 -292 -54 -55 -3
-117 -8 -138 -11 l-38 -4 32 46 c71 103 126 272 136 419 6 81 5 85 -15 85 -18
0 -21 -8 -27 -77 -26 -285 -177 -543 -318 -543 -47 0 -93 25 -107 59 -19 47
-6 102 54 226 60 122 87 214 89 296 2 41 -1 54 -13 54 -8 0 -17 -14 -21 -35
-30 -153 -46 -205 -96 -304 -38 -77 -56 -126 -60 -164 l-6 -54 -71 6 c-39 3
-95 7 -124 8 -35 1 -56 7 -61 16 -8 14 -13 13 -42 0 -90 -43 -319 -67 -444
-48 -105 16 -173 49 -229 111 -65 72 -80 126 -73 258 7 128 20 173 64 211 48
42 96 49 151 19 67 -35 84 -81 90 -244 4 -131 13 -163 35 -135 9 12 25 14 67
9 132 -14 285 17 429 87 125 60 201 115 295 215 61 65 87 102 124 180 55 115
32 111 222 42z m-1136 -489 c3 -8 2 -12 -4 -9 -6 3 -10 10 -10 16 0 14 7 11
14 -7z"/>
<path d="M1300 1531 c-47 -26 -100 -57 -117 -67 -22 -13 -33 -27 -33 -41 0
-33 31 -29 95 12 30 19 82 48 115 65 50 25 61 35 58 53 -5 35 -27 31 -118 -22z"/>
<path d="M1332 1374 c-30 -21 -29 -59 3 -80 23 -15 27 -15 50 0 32 21 33 59 3
80 -12 9 -25 16 -28 16 -3 0 -16 -7 -28 -16z m52 -32 c8 -13 -7 -29 -26 -29
-11 0 -18 8 -18 19 0 18 34 26 44 10z"/>
<path d="M770 1217 c-155 -89 -170 -99 -170 -117 0 -34 31 -31 94 8 33 22 84
51 112 65 64 32 81 51 64 72 -7 8 -15 15 -19 15 -4 0 -40 -19 -81 -43z m-30
-51 c0 -3 -4 -8 -10 -11 -5 -3 -10 -1 -10 4 0 6 5 11 10 11 6 0 10 -2 10 -4z"/>
<path d="M804 1056 c-15 -24 -15 -28 0 -51 20 -31 56 -33 82 -4 17 19 17 23 3
47 -21 38 -62 41 -85 8z m66 -15 c-1 -17 -20 -33 -33 -28 -23 9 -10 46 14 40
10 -3 19 -8 19 -12z"/>
<path d="M1660 685 c-7 -8 -10 -29 -8 -45 5 -34 3 -37 -34 -44 -43 -7 -65 -24
-70 -51 -3 -14 -2 -28 3 -31 20 -12 -5 -34 -40 -34 -54 0 -68 -27 -41 -80 24
-47 76 -100 99 -100 10 0 1 15 -26 43 -35 36 -73 94 -73 112 0 3 27 5 60 5
l60 0 -6 28 c-4 15 -11 37 -15 49 -7 20 -4 22 54 30 67 9 65 5 51 81 -6 29 -5
32 20 32 14 0 26 5 26 10 0 16 -46 12 -60 -5z"/>
<path d="M2113 557 c18 -48 27 -102 22 -130 -10 -49 -49 -102 -100 -137 -50
-34 -54 -47 -11 -30 37 14 104 83 122 125 24 59 8 172 -26 183 -9 3 -11 -1 -7
-11z"/>
</g>
</svg>
